<svg xmlns="http://www.w3.org/2000/svg" width="430" height="430" fill="none" viewBox="0 0 430 430"><path fill="#e6a" d="M260 66V21h-90v45"/><path fill="#e6a" d="M170 66V21h45v45z" opacity=".5" style="mix-blend-mode:multiply"/><path fill="#7166ee" d="M75 61h280c16.569 0 30 13.432 30 30v154H45V91c0-16.568 13.432-30 30-30"/><path fill="#7166ee" d="M75 61h280c16.569 0 30 13.432 30 30v154H45V91c0-16.568 13.432-30 30-30" opacity=".9" style="mix-blend-mode:multiply"/><path fill="#7166ee" d="M110 61H75c-16.568 0-30 13.432-30 30v154h35V91c0-16.568 13.432-30 30-30" opacity=".5" style="mix-blend-mode:multiply"/><path fill="#ebe6ef" d="m273.938 118.587 44.258 165.174-207.674 55.646-44.258-165.174z"/><path fill="#ebe6ef" d="m273.938 118.587 44.258 165.174-207.674 55.646-44.258-165.174z" opacity=".8" style="mix-blend-mode:multiply"/><path fill="#ebe6ef" d="m134.019 156.078-14.022 160.275v2.492l-15.345-1.343-10.373-38.71 10.04-114.756z" opacity=".5" style="mix-blend-mode:multiply"/><path stroke="#242424" stroke-linecap="round" stroke-linejoin="round" stroke-width="10.5" d="m273.938 118.587 44.258 165.174-207.674 55.646-44.258-165.174z"/><path fill="#ebe6ef" d="m351.998 124.693-14.816 169.353L123 275.307l14.816-169.353z"/><path fill="#ebe6ef" d="m151.998 275.353 14.6-166.88-28.783-2.519-14.817 169.353 29 2.538z" opacity=".5" style="mix-blend-mode:multiply"/><path stroke="#242424" stroke-linecap="round" stroke-linejoin="round" stroke-width="10.5" d="m351.998 124.693-14.816 169.353L123 275.307l14.816-169.353zm-178.256 29.576 64.753 5.665m-68.239 34.183 129.505 11.33"/><path fill="#7166ee" d="M75 411h280c16.569 0 30-13.431 30-30V245H45v136c0 16.569 13.432 30 30 30"/><path fill="#7166ee" d="M110 411H75c-16.568 0-30-13.431-30-30V245h35v136c0 16.569 13.432 30 30 30" opacity=".4" style="mix-blend-mode:multiply"/><path stroke="#242424" stroke-linecap="round" stroke-linejoin="round" stroke-miterlimit="15.6" stroke-width="10.5" d="M260 61V21h-90v40m0 259h90m125-85v146c0 16.569-13.431 30-30 30H75c-16.568 0-30-13.431-30-30V235"/><path stroke="#242424" stroke-linecap="round" stroke-linejoin="round" stroke-miterlimit="15.6" stroke-width="10.5" d="M75 61h280c16.569 0 30 13.432 30 30v154H45V91c0-16.568 13.432-30 30-30"/></svg>