<svg xmlns="http://www.w3.org/2000/svg" width="430" height="430" fill="none" viewBox="0 0 430 430"><path fill="#ebe6ef" d="M226.91 57.5v27.63h-23V57.5c0-1.66 1.34-3 3-3h17c1.66 0 3 1.34 3 3"/><path fill="#ebe6ef" d="M215.4 54.5v30.63h-11.49V57.5c0-1.66 1.34-3 3-3z" opacity=".5" style="mix-blend-mode:multiply"/><path fill="#ebe6ef" d="M330.83 217.63v17.01c0 1.66-1.34 3-3 3h-21.76v-23.01h21.76c1.66 0 3 1.34 3 3"/><path fill="#ebe6ef" d="M317.56 214.63h-11.49v23.01h11.49z" opacity=".5" style="mix-blend-mode:multiply"/><path fill="#ebe6ef" d="M124.96 214.95v23.01H103c-1.66 0-3-1.34-3-3v-17.01c0-1.66 1.34-3 3-3z"/><path fill="#ebe6ef" d="M111.49 214.95v23.01H103c-1.66 0-3-1.34-3-3v-17.01c0-1.66 1.34-3 3-3z" opacity=".5" style="mix-blend-mode:multiply"/><path fill="#f24c00" d="M277.381 265.95v73.72h9.71c18.24 0 33.23 13.93 34.91 31.73.17 1.78-1.19 3.34-2.98 3.34h-207.21c-1.79 0-3.15-1.56-2.98-3.34.79-8.35 4.51-15.85 10.11-21.46 6.35-6.34 15.12-10.27 24.8-10.27h9.71v-73.4l-28.38-10.57a3.01 3.01 0 0 1-1.95-2.81v-52.86c0-1.25.78-2.37 1.95-2.81l28.38-10.57v-24.08h-27.03c-1.66 0-3-1.34-3-3v-2.25c0-12.56 10.18-22.75 22.75-22.75h4.62v-.02c0-28.74 23.29-52.04 52.04-52.04h25.18c28.74 0 52.04 23.3 52.04 52.04v.02h4.62c12.56 0 22.75 10.19 22.75 22.75v2.25c0 1.66-1.34 3-3 3h-27.04v23.76l28.38 10.57c1.17.44 1.95 1.56 1.95 2.81v52.86c0 1.25-.78 2.37-1.95 2.81z"/><path fill="#f24c00" d="M153.449 186.64v79.63l-28.38-10.57a3.01 3.01 0 0 1-1.95-2.81v-52.87c0-1.25.78-2.37 1.95-2.81zm154.262 51v14.93c0 1.25-.78 2.37-1.95 2.81l-28.38 10.57v-79.63l28.38 10.57c1.17.44 1.95 1.56 1.95 2.81v14.93m11.31 160.11h-207.2c-1.79 0-3.15-1.56-2.98-3.34.79-8.35 4.51-15.85 10.11-21.46 6.35-6.34 15.12-10.27 24.8-10.27h36.92v-49.95c0-1.67 1.13-3.19 2.77-3.52a3.504 3.504 0 0 1 4.23 3.42v50.05h24.25v-31.55c0-1.67 1.13-3.19 2.77-3.52a3.504 3.504 0 0 1 4.23 3.42v31.65h24.25v-49.95c0-1.67 1.13-3.19 2.77-3.52a3.504 3.504 0 0 1 4.23 3.42v50.05h36.93c18.24 0 33.23 13.93 34.91 31.73.17 1.78-1.19 3.34-2.98 3.34zM146.17 134.57h138.5c12.56 0 22.75 10.19 22.75 22.75v2.25c0 1.66-1.34 3-3 3h-178c-1.66 0-3-1.34-3-3v-2.25c0-12.56 10.19-22.75 22.75-22.75m69.25 131.06c21.815 0 39.5-17.685 39.5-39.5s-17.685-39.5-39.5-39.5-39.5 17.685-39.5 39.5 17.685 39.5 39.5 39.5" opacity=".5" style="mix-blend-mode:multiply"/><path fill="#ebe6ef" d="M215.42 240.87c8.14 0 14.74-6.599 14.74-14.74s-6.6-14.74-14.74-14.74-14.74 6.599-14.74 14.74 6.599 14.74 14.74 14.74"/><path fill="#ebe6ef" d="M221.16 239.71c-1.77.75-3.71 1.16-5.75 1.16-8.14 0-14.73-6.6-14.73-14.74s6.59-14.73 14.73-14.73c2.04 0 3.98.41 5.75 1.16-5.28 2.24-8.99 7.48-8.99 13.57s3.71 11.34 8.99 13.58" opacity=".5" style="mix-blend-mode:multiply"/></svg>