<svg xmlns="http://www.w3.org/2000/svg" width="430" height="430" fill="none" viewBox="0 0 430 430"><path stroke="#646e78" stroke-linecap="round" stroke-linejoin="round" stroke-width="7" d="M215 211.97v162.49"/><path fill="#4bb3fd" d="M215 211.98c26.924 0 48.75-21.826 48.75-48.75s-21.826-48.75-48.75-48.75c-26.923 0-48.75 21.826-48.75 48.75s21.827 48.75 48.75 48.75"/><path fill="#4bb3fd" d="M238.12 206.15a48.75 48.75 0 0 1-57.27-8.187 48.74 48.74 0 0 1-14.492-37.353 48.7 48.7 0 0 1 5.369-19.775 48.74 48.74 0 0 1 31.393-24.895 48.752 48.752 0 0 0 .707 86.251 48.75 48.75 0 0 0 34.293 3.959" opacity=".5" style="mix-blend-mode:multiply"/><path stroke="#4bb3fd" stroke-linecap="round" stroke-linejoin="round" stroke-width="7" d="M148.44 234.36a97.4 97.4 0 0 1 0-142.26m133.12 0a97.4 97.4 0 0 1 22.814 109.898 97.4 97.4 0 0 1-22.814 32.362"/><path stroke="#4bb3fd" stroke-linecap="round" stroke-linejoin="round" stroke-width="7" d="M314.83 56.5a146.06 146.06 0 0 1 0 213.37m-199.66.04a146.07 146.07 0 0 1-46.3-106.685 146.07 146.07 0 0 1 46.3-106.685"/></svg>