<svg xmlns="http://www.w3.org/2000/svg" width="430" height="430" fill="none" viewBox="0 0 430 430"><path fill="#ebe6ef" d="M311.579 139.006c-24.6 42.7-49.3 85.3-73.9 128-6.1 10.6-14.5 15.3-20.7 25.9-5.5 9.5-16.2 11.2-33.5 11.2-17.9-1-30.3-5.5-43.4-13.1-15-8.6-9.3-5.3-21.8-12.6-1.4-.8-1.9-2.7-1.1-4.1 16.9-29.3 25.4-44 32-55.4.2-.3 28.4-13.7 28.5-13.9 0 0 16.8-29.1 17.1-29.5 2.8-4.9-9.8-18.5-7-23.4 12.2-21.2 24.5-42.4 36.7-63.5 29 16.9 58.1 33.6 87.1 50.4"/><path fill="#66d7ee" d="m311.579 139.006-26.8 46.4-137.3 36.8 40.9-70.9 98.7-26.5zm-72.499 125.6-34.7 60.1c-.8 1.4-2.7 1.9-4.1 1.1l-60.1-34.7z"/><path fill="#ebe6ef" d="M147.479 222.206s-24 41.4-30.3 52.3c-.8 1.4-.3 3.3 1.1 4.1l18.4 10.6 43.8-75.9zm77-133.499-36.1 62.5h.1l33.1-8.9 24-41.6z" opacity=".5" style="mix-blend-mode:multiply"/><path fill="#66d7ee" d="m221.479 142.406-41 70.9-33 8.9 40.9-70.9z" opacity=".5" style="mix-blend-mode:multiply"/><path fill="#2ca58d" d="m310.379 45.106 14.7 96.1c.4 2.5-2.3 4.3-4.5 3.1l-105.2-60.8c-2.2-1.3-1.9-4.5.4-5.4l90.6-35.3c1.8-.8 3.7.4 4 2.3"/><path fill="#2ca58d" d="m312.179 56.506-85.6 33.4-11.2-6.5c-2.2-1.3-1.9-4.5.4-5.4l90.6-35.3c1.8-.7 3.8.4 4.1 2.3z" opacity=".5" style="mix-blend-mode:multiply"/><path stroke="#66d7ee" stroke-linecap="round" stroke-linejoin="round" stroke-miterlimit="10" stroke-width="7" d="M163.079 304.306c-8.4 14.6-16 10.2-24.5 24.8-8.4 14.6-.8 19-9.2 33.6s-16 10.2-24.5 24.8"/></svg>